HIERARCHY
ROOT Hips
{
	OFFSET 0.000000 0.000000 0.000000
	CHANNELS 6 Xposition Yposition Zposition Zrotation Yrotation Xrotation 
	JOINT LHipJoint
	{
		OFFSET 0.000000 0.000000 0.000000
		CHANNELS 3 Zrotation Yrotation Xrotation
		JOINT LeftUpLeg
		{
			OFFSET 1.363060 -1.794630 0.839290
			CHANNELS 3 Zrotation Yrotation Xrotation
			JOINT LeftLeg
			{
				OFFSET 2.448110 -6.726130 0.000000
				CHANNELS 3 Zrotation Yrotation Xrotation
				JOINT LeftFoot
				{
					OFFSET 2.562200 -7.039590 0.000000
					CHANNELS 3 Zrotation Yrotation Xrotation
					JOINT LeftToeBase
					{
						OFFSET 0.157640 -0.433110 2.322550
						CHANNELS 3 Zrotation Yrotation Xrotation
						End Site
						{
							OFFSET 0.000000 0.000000 0.000000
						}
					}
				}
			}
		}
	}
	JOINT RHipJoint
	{
		OFFSET 0.000000 0.000000 0.000000
		CHANNELS 3 Zrotation Yrotation Xrotation
		JOINT RightUpLeg
		{
			OFFSET -1.305520 -1.794630 0.839290
			CHANNELS 3 Zrotation Yrotation Xrotation
			JOINT RightLeg
			{
				OFFSET -2.542530 -6.985550 0.000000
				CHANNELS 3 Zrotation Yrotation Xrotation
				JOINT RightFoot
				{
					OFFSET -2.568260 -7.056230 0.000000
					CHANNELS 3 Zrotation Yrotation Xrotation
					JOINT RightToeBase
					{
						OFFSET -0.164730 -0.452590 2.363150
						CHANNELS 3 Zrotation Yrotation Xrotation
						End Site
						{
							OFFSET 0.000000 0.000000 0.000000
						}
					}
				}
			}
		}
	}
	JOINT LowerBack
	{
		OFFSET 0.000000 0.000000 0.000000
		CHANNELS 3 Zrotation Yrotation Xrotation
		JOINT Spine
		{
			OFFSET 0.028270 2.035590 -0.193380
			CHANNELS 3 Zrotation Yrotation Xrotation
			JOINT Spine1
			{
				OFFSET 0.056720 2.048850 -0.042750
				CHANNELS 3 Zrotation Yrotation Xrotation
				JOINT Neck
				{
					OFFSET 0.000000 0.000000 0.000000
					CHANNELS 3 Zrotation Yrotation Xrotation
					JOINT Neck1
					{
						OFFSET -0.054170 1.746240 0.172020
						CHANNELS 3 Zrotation Yrotation Xrotation
						JOINT Head
						{
							OFFSET 0.104070 1.761360 -0.123970
							CHANNELS 3 Zrotation Yrotation Xrotation
							End Site
							{
								OFFSET 0.000000 0.000000 0.000000
							}
						}
					}
				}
				JOINT LeftShoulder
				{
					OFFSET 0.000000 0.000000 0.000000
					CHANNELS 3 Zrotation Yrotation Xrotation
					JOINT LeftArm
					{
						OFFSET 3.362410 1.200890 -0.311210
						CHANNELS 3 Zrotation Yrotation Xrotation
						JOINT LeftForeArm
						{
							OFFSET 4.983000 -0.000000 -0.000000
							CHANNELS 3 Zrotation Yrotation Xrotation
							JOINT LeftHand
							{
								OFFSET 3.483560 -0.000000 -0.000000
								CHANNELS 3 Zrotation Yrotation Xrotation
								JOINT LeftFingerBase
								{
									OFFSET 0.000000 0.000000 0.000000
									CHANNELS 3 Zrotation Yrotation Xrotation
									JOINT LeftHandIndex1
									{
										OFFSET 0.715260 -0.000000 -0.000000
										CHANNELS 3 Zrotation Yrotation Xrotation
										End Site
										{
											OFFSET 0.000000 0.000000 0.000000
										}
									}
								}
								JOINT LThumb
								{
									OFFSET 0.000000 0.000000 0.000000
									CHANNELS 3 Zrotation Yrotation Xrotation
									End Site
									{
										OFFSET 0.000000 0.000000 0.000000
									}
								}
							}
						}
					}
				}
				JOINT RightShoulder
				{
					OFFSET 0.000000 0.000000 0.000000
					CHANNELS 3 Zrotation Yrotation Xrotation
					JOINT RightArm
					{
						OFFSET -3.136600 1.374050 -0.404650
						CHANNELS 3 Zrotation Yrotation Xrotation
						JOINT RightForeArm
						{
							OFFSET -5.241900 -0.000000 -0.000000
							CHANNELS 3 Zrotation Yrotation Xrotation
							JOINT RightHand
							{
								OFFSET -3.444170 -0.000000 -0.000000
								CHANNELS 3 Zrotation Yrotation Xrotation
								JOINT RightFingerBase
								{
									OFFSET 0.000000 0.000000 0.000000
									CHANNELS 3 Zrotation Yrotation Xrotation
									JOINT RightHandIndex1
									{
										OFFSET -0.622530 -0.000000 -0.000000
										CHANNELS 3 Zrotation Yrotation Xrotation
										End Site
										{
											OFFSET 0.000000 0.000000 0.000000
										}
									}
								}
								JOINT RThumb
								{
									OFFSET 0.000000 0.000000 0.000000
									CHANNELS 3 Zrotation Yrotation Xrotation
									End Site
									{
										OFFSET 0.000000 0.000000 0.000000
									}
								}
							}
						}
					}
				}
			}
		}
	}
}
MOTION
Frames: 4
Frame Time: 0.008333
1.003351 17.303988 37.275034 -174.084047 4.205802 -175.854725 6.348456 -0.069375 -1.431599 -13.774883 -13.657473 -29.334253 0.581847 11.104880 26.721990 1.468840 14.828420 22.597994 0.101400 -2.053900 -5.654600 -11.656221 -2.895671 -4.631050 37.849900 -4.726494 11.130696 -3.288204 -11.292073 38.927901 -0.692415 -19.489628 14.496089 -0.588200 4.910500 -13.653600 5.158728 6.589779 -1.715029 -0.543400 7.680986 -3.760357 -3.386925 4.135496 10.041929 -2.759966 -3.942192 -24.626778 6.431655 -8.808536 14.488947 -0.862400 -3.488800 27.458500 11.348358 4.328692 -1.244401 -67.170042 35.424198 59.030431 98.768069 -62.135001 -62.993099 1.387107 -0.266082 17.963583 16.759634 4.960963 1.319500 -7.125000 0.000000 0.000000 -9.353100 34.844900 2.358300 -11.619120 -0.351414 0.303214 89.125603 -8.189055 56.287963 -108.713164 57.024898 -64.631798 0.223507 -1.795883 9.054188 -11.803928 -2.801015 0.221800 7.125000 0.000000 0.000000 11.296400 -30.901900 3.959800 
0.979652 17.206497 36.992902 -174.052048 4.164798 -176.424494 6.296420 0.008939 -1.454760 -14.680238 -12.144238 -29.056493 0.892670 11.565273 28.296802 0.832108 13.647049 18.281993 0.074400 -1.759700 -4.842100 -11.559028 -2.916744 -4.549195 37.404876 -5.157263 10.585986 -3.989696 -12.085367 42.012735 -0.497219 -20.429053 12.964680 -0.551900 4.759200 -13.223100 5.337037 6.399656 -1.327268 -0.523113 7.474601 -3.784919 -3.549106 4.052503 9.982905 -2.678568 -3.828189 -25.381886 6.259744 -8.826847 14.601069 -1.109100 -3.467900 28.530600 11.362683 4.299975 -1.271288 -67.681563 35.314519 58.669809 98.415989 -62.127574 -62.711359 1.381575 -0.244894 17.844149 16.917037 5.132457 1.378000 -7.125000 0.000000 0.000000 -9.236200 35.012600 2.290100 -11.627471 -0.307083 0.299397 89.308294 -8.936597 55.877463 -108.004215 57.241861 -63.858749 0.248232 -1.858310 9.065001 -12.174061 -3.249511 0.316300 7.125000 0.000000 0.000000 11.024600 -31.297900 3.754500 
0.961770 17.118378 36.726498 -174.174230 4.080284 -176.968878 6.262050 0.076211 -1.486211 -15.590471 -11.237136 -28.438806 1.262498 12.114437 30.141620 0.425485 13.983721 15.693581 0.163900 -2.608300 -7.190000 -11.455641 -2.924897 -4.476973 36.908232 -5.380959 9.745759 -4.767344 -12.890076 45.234654 -0.328080 -20.862657 11.452998 -0.534700 4.685500 -13.013600 5.306571 6.180680 -0.941015 -0.510099 7.240540 -3.730876 -3.661144 3.947639 10.056594 -2.611743 -3.720629 -25.321641 6.345199 -8.592029 14.514431 -0.980700 -3.380300 28.168900 11.372233 4.297666 -1.225759 -68.473641 34.770432 58.073263 97.653900 -62.190851 -62.055774 1.390128 -0.230927 17.917476 17.191472 5.038432 1.371500 -7.125000 0.000000 0.000000 -8.998800 34.909400 2.252800 -11.646627 -0.320950 0.358839 89.667181 -9.346575 55.156458 -106.790805 57.652064 -62.519923 0.272069 -1.912803 9.347770 -12.305994 -3.599187 0.389200 7.125000 0.000000 0.000000 10.924100 -31.602900 3.637700 
0.941517 17.021641 36.456323 -174.329213 4.035012 -177.529853 6.228008 0.129985 -1.505097 -16.407623 -10.583910 -27.816914 1.611253 12.604716 31.823346 0.026203 14.067791 12.571107 0.077100 -1.791500 -4.929900 -11.360264 -2.928421 -4.416825 36.339202 -5.608986 9.083233 -5.553107 -13.604870 48.330519 -0.158482 -21.387583 10.032186 -0.540800 4.711900 -13.088500 5.224863 5.965678 -0.571072 -0.486767 7.007462 -3.689321 -3.713074 3.837313 10.117230 -2.494389 -3.563663 -25.429383 6.354796 -8.354300 14.466462 -0.977000 -3.274100 28.074500 11.397018 4.285162 -1.187463 -69.349063 34.287931 57.449232 96.860725 -62.253396 -61.369604 1.393066 -0.209871 17.977067 17.451273 5.055570 1.393800 -7.125000 0.000000 0.000000 -8.781600 34.914900 2.196200 -11.649293 -0.334741 0.407839 89.949114 -9.823163 54.481062 -105.597775 58.046852 -61.249388 0.300005 -1.965924 9.548660 -12.468875 -4.021953 0.482500 7.125000 0.000000 0.000000 10.807100 -31.984000 3.496600 
